<?xml version="1.0" standalone="no"?><!DOCTYPE svg PUBLIC "-//W3C//DTD SVG 1.1//EN" "http://www.w3.org/Graphics/SVG/1.1/DTD/svg11.dtd"><svg t="1649090010372" class="icon" viewBox="0 0 1024 1024" version="1.1" xmlns="http://www.w3.org/2000/svg" p-id="17796" data-spm-anchor-id="a313x.7781069.0.i21" xmlns:xlink="http://www.w3.org/1999/xlink" width="64" height="64"><defs><style type="text/css">@font-face { font-family: feedback-iconfont; src: url("//at.alicdn.com/t/font_1031158_u69w8yhxdu.woff2?t=1630033759944") format("woff2"), url("//at.alicdn.com/t/font_1031158_u69w8yhxdu.woff?t=1630033759944") format("woff"), url("//at.alicdn.com/t/font_1031158_u69w8yhxdu.ttf?t=1630033759944") format("truetype"); }
</style></defs><path d="M896 883.2c-68.267 0-145.067-25.6-256-89.6-42.667-25.6-85.333-34.133-128-34.133-46.933 0-89.6 8.533-132.267 34.133-110.933 64-187.733 89.6-256 89.6-38.4 0-72.533-21.333-93.866-64C12.8 785.067 8.533 742.4 8.533 686.933c0-217.6 128-546.133 315.734-546.133 25.6 0 51.2 12.8 85.333 25.6 34.133 12.8 68.267 29.867 102.4 29.867 29.867 0 68.267-17.067 102.4-29.867 29.867-12.8 59.733-25.6 85.333-25.6 192 0 315.734 328.533 315.734 546.133 0 55.467-8.534 98.134-21.334 132.267-21.333 38.4-55.466 64-98.133 64zM520.533 695.467c55.467 0 102.4 12.8 153.6 42.666 102.4 59.734 166.4 81.067 226.134 81.067 8.533 0 25.6-4.267 34.133-29.867 12.8-25.6 17.067-59.733 17.067-102.4 0-192-115.2-482.133-251.734-482.133-12.8 0-34.133 12.8-55.466 21.333-38.4 17.067-81.067 38.4-128 38.4-42.667 0-89.6-21.333-128-38.4-25.6-8.533-51.2-21.333-59.734-21.333-140.8 0-251.733 290.133-251.733 482.133 0 42.667 4.267 81.067 17.067 102.4 12.8 25.6 25.6 29.867 34.133 29.867 55.467 0 123.733-25.6 226.133-81.067 51.2-29.866 102.4-42.666 162.134-42.666h4.266z m-68.266-162.134h-179.2c-17.067 0-34.134-12.8-34.134-34.133s12.8-29.867 34.134-29.867h179.2c17.066 0 34.133 12.8 34.133 34.134s-17.067 29.866-34.133 29.866z m-89.6 89.6c-17.067 0-34.134-12.8-34.134-34.133V413.867c0-17.067 12.8-34.134 34.134-34.134s34.133 12.8 34.133 34.134v179.2c-4.267 17.066-17.067 29.866-34.133 29.866z m260.266-119.466a1.5 1.5 0 1 0 128 0 1.5 1.5 0 1 0-128 0z" p-id="17797" data-spm-anchor-id="a313x.7781069.0.i20" class="" fill="#1296db"></path></svg>