<svg t="1649148939391" class="icon" viewBox="0 0 1024 1024" version="1.1" xmlns="http://www.w3.org/2000/svg" p-id="9970" data-spm-anchor-id="a313x.7781069.0.i8" width="64" height="64"><path d="M432 608H304c-17.6 0-32 14.4-32 32s14.4 32 32 32h128c17.6 0 32-14.4 32-32s-14.4-32-32-32z m160-160H304c-17.6 0-32 14.4-32 32s14.4 32 32 32h288c17.6 0 32-14.4 32-32s-14.4-32-32-32z m0-160H304c-17.6 0-32 14.4-32 32s14.4 32 32 32h288c17.6 0 32-14.4 32-32s-14.4-32-32-32z" p-id="9971" data-spm-anchor-id="a313x.7781069.0.i7" class="" fill="#efb336"></path><path d="M784 256v-32c0-70.4-57.6-128-128-128H240c-70.4 0-128 57.6-128 128v576c0 70.4 57.6 128 128 128h544c70.4 0 128-57.6 128-128V384c0-70.4-57.6-128-128-128z m64 544c0 35.2-28.8 64-64 64H240c-35.2 0-64-28.8-64-64V224c0-35.2 28.8-64 64-64h416c35.2 0 64 28.8 64 64v480c0 17.6 14.4 32 32 32s32-14.4 32-32V320c35.2 0 64 28.8 64 64v416z" p-id="9972" data-spm-anchor-id="a313x.7781069.0.i6" class="" fill="#efb336"></path></svg>