<?xml version="1.0" standalone="no"?><!DOCTYPE svg PUBLIC "-//W3C//DTD SVG 1.1//EN" "http://www.w3.org/Graphics/SVG/1.1/DTD/svg11.dtd"><svg t="1649089891740" class="icon" viewBox="0 0 1024 1024" version="1.1" xmlns="http://www.w3.org/2000/svg" p-id="9915" data-spm-anchor-id="a313x.7781069.0.i2" xmlns:xlink="http://www.w3.org/1999/xlink" width="64" height="64"><defs><style type="text/css">@font-face { font-family: feedback-iconfont; src: url("//at.alicdn.com/t/font_1031158_u69w8yhxdu.woff2?t=1630033759944") format("woff2"), url("//at.alicdn.com/t/font_1031158_u69w8yhxdu.woff?t=1630033759944") format("woff"), url("//at.alicdn.com/t/font_1031158_u69w8yhxdu.ttf?t=1630033759944") format("truetype"); }
</style></defs><path d="M356.54545479 384.48636348v271.39090957a53.18181826 53.18181826 0 0 0 80.55 45.61363564l226.1454539-135.6954539a53.18181826 53.18181826 0 0 0 0-91.22727305L437.09545479 338.87272695A53.18181826 53.18181826 0 0 0 356.54545479 384.48636348z m255.47727216 135.69545478L422 634.19545479V406.16818174l190.02272695 114.01363652z" p-id="9916" data-spm-anchor-id="a313x.7781069.0.i1" class="" fill="#ea9518"></path><path d="M512 953.81818174c244.02272695 0 441.81818174-197.79545479 441.81818174-441.81818174C953.81818174 267.97727305 756.02272695 70.18181826 512 70.18181826 267.97727305 70.18181826 70.18181826 267.97727305 70.18181826 512c0 244.02272695 197.79545479 441.81818174 441.81818174 441.81818174z m0-65.45454522a376.36363653 376.36363653 0 1 1 0-752.72727305 376.36363653 376.36363653 0 0 1 0 752.72727305z" p-id="9917" data-spm-anchor-id="a313x.7781069.0.i0" class="" fill="#ea9518"></path></svg>