<?xml version="1.0" standalone="no"?><!DOCTYPE svg PUBLIC "-//W3C//DTD SVG 1.1//EN" "http://www.w3.org/Graphics/SVG/1.1/DTD/svg11.dtd"><svg t="1649131764212" class="icon" viewBox="0 0 1024 1024" version="1.1" xmlns="http://www.w3.org/2000/svg" p-id="8367" xmlns:xlink="http://www.w3.org/1999/xlink" width="64" height="64"><defs><style type="text/css">@font-face { font-family: feedback-iconfont; src: url("//at.alicdn.com/t/font_1031158_u69w8yhxdu.woff2?t=1630033759944") format("woff2"), url("//at.alicdn.com/t/font_1031158_u69w8yhxdu.woff?t=1630033759944") format("woff"), url("//at.alicdn.com/t/font_1031158_u69w8yhxdu.ttf?t=1630033759944") format("truetype"); }
</style></defs><path d="M512 960A448 448 0 1 1 960 512 448.5 448.5 0 0 1 512 960z m0-832a384 384 0 1 0 384 384 384.5 384.5 0 0 0-384-384z" fill="#2c2c2c" p-id="8368"></path><path d="M567.8 800a31.6 31.6 0 0 1-22.6-9.4 31.9 31.9 0 0 1 0-45.2 330 330 0 0 0 0-466.8 32 32 0 1 1 45.3-45.2 394 394 0 0 1 0 557.2 31.9 31.9 0 0 1-22.7 9.4z" fill="#2c2c2c" p-id="8369"></path><path d="M450 681.8a32 32 0 0 1-22.6-54.6 163 163 0 0 0 0-230 32 32 0 0 1 45.2-45.3 226.9 226.9 0 0 1 0 321 31.9 31.9 0 0 1-22.6 8.9z" fill="#2c2c2c" p-id="8370"></path><path d="M311.8 512m-55.7 0a55.7 55.7 0 1 0 111.4 0 55.7 55.7 0 1 0-111.4 0Z" fill="#2c2c2c" p-id="8371"></path></svg>