<?xml version="1.0" standalone="no"?><!DOCTYPE svg PUBLIC "-//W3C//DTD SVG 1.1//EN" "http://www.w3.org/Graphics/SVG/1.1/DTD/svg11.dtd"><svg t="1649076603506" class="icon" viewBox="0 0 1024 1024" version="1.1" xmlns="http://www.w3.org/2000/svg" p-id="29615" xmlns:xlink="http://www.w3.org/1999/xlink" width="64" height="64"><defs><style type="text/css">@font-face { font-family: feedback-iconfont; src: url("//at.alicdn.com/t/font_1031158_u69w8yhxdu.woff2?t=1630033759944") format("woff2"), url("//at.alicdn.com/t/font_1031158_u69w8yhxdu.woff?t=1630033759944") format("woff"), url("//at.alicdn.com/t/font_1031158_u69w8yhxdu.ttf?t=1630033759944") format("truetype"); }
</style></defs><path d="M483.2 790.3L861.4 412c1.7-1.7 2.5-4 2.3-6.3l-25.5-301.4c-0.7-7.8-6.8-13.9-14.6-14.6L522.2 64.3c-2.3-0.2-4.7 0.6-6.3 2.3L137.7 444.8c-3.1 3.1-3.1 8.2 0 11.3l334.2 334.2c3.1 3.2 8.2 3.2 11.3 0z m122.7-533.4c18.7-18.7 49.1-18.7 67.9 0 18.7 18.7 18.7 49.1 0 67.9-18.7 18.7-49.1 18.7-67.9 0-18.7-18.7-18.7-49.1 0-67.9z" p-id="29616" fill="#07c160"></path><path d="M889.7 539.8l-39.6-39.5c-3.1-3.1-8.2-3.1-11.3 0l-362 361.3-237.6-237c-3.1-3.1-8.2-3.1-11.3 0l-39.6 39.5c-3.1 3.1-3.1 8.2 0 11.3l243.2 242.8 39.6 39.5c3.1 3.1 8.2 3.1 11.3 0l407.3-406.6c3.1-3.1 3.1-8.2 0-11.3z" p-id="29617" fill="#07c160"></path></svg>